<?xml version="1.0"?>
<svg xmlns="http://www.w3.org/2000/svg" xmlns:xlink="http://www.w3.org/1999/xlink" version="1.1" id="Layer_1" x="0px" y="0px" viewBox="0 0 48 48" style="enable-background:new 0 0 48 48;" xml:space="preserve">
<path style="fill:#757575;" d="M34.799,3l-3.071,1.313c0,0-3.459,0.856-5.323,0.856c-0.46,0-0.928-0.026-1.4-0.07  C24.065,5.007,23.058,5.083,22,5.083c-0.521,0-1.511,0.1-1.511,0.1s-5.417,3.576-7.412,7.192c-0.285,1.162,0.308,3.722,0.308,3.722  s0.973,2.372,0.456,3.449C13.336,20.601,12,22.523,12,22.523s0.088,3.029,0.407,4.575c0.301,1.454-0.183,3.715-0.183,3.715  s0.894,1.735,3.261,2.185c0.765,0.144,23.494-7.074,23.342-8.431c-0.152-1.361-0.962-20.752-3.069-21.324  C35.446,3.07,34.799,3,34.799,3z"></path>
<path style="fill:#424242;" d="M44.346,18.812L45,16.307l-0.685-1.69l-0.765-0.889l0.424-1.999L41.77,9.371  c0,0-1.811-1.181-1.667-2.579c0.27-2.608-4.106-3.674-4.106-3.674S34.966,3.041,34.799,3c1.861,1.026,2.45,6.345,2.45,6.345  L37.125,11.5l0.223,2.099c0.154,0.037-0.508,2.951-0.221,4.663c0.279,1.663-1.176,3.682-1.176,3.682s-6.959,2.619-6.944,4.25  c0.008,0.882,0.289,1.232-0.293,1.959c-0.453,0.564-2.02,1.417-2.02,1.417l-1.362-0.576l-1.754,0.343c0,0-0.117,0.057-0.319,0.151  c-0.68-1.049-1.229-2.018-1.359-2.418c0.05-2.35-3.22-3.621-5.29-3.941l-0.45-0.07l-0.41,0.19c-1.19,0.56-2.75,1.461-3.09,1.461  c-0.13-0.01-0.32-0.05-0.51-0.09c-0.01,0-0.03,0-0.04-0.01c0.07,0.86,0.16,1.81,0.3,2.49c0.04,0.19,0.07,0.39,0.08,0.6  c0.04,0.01,0.08,0.01,0.12,0.01c1.08,0,2.9-0.73,3.85-1.15c1,0.19,2.02,0.53,2.43,0.8c0.06,0.479,0.35,1.379,1.557,3.315  c-2.375,0.907-5.434,1.813-6.689,1.053c-0.654-0.395-1.069-0.848-1.442-1.412c-0.03,0.184-0.061,0.291-0.088,0.497  c-0.304,2.343,0.89,3.678,3.257,4.128c0.765,0.144,2.329,0.417,2.329,0.417l2.165,0.343l1.396,1.291L21.79,37h0l0,0h0l0.322-0.063  l2.368-0.467v0l5.266-1.038L31.998,35h5.085c0,0,3.077-1.678,3.876-3.076c0.883-1.535,3.778-3.392,3.778-3.392L45,24.61  c0,0-0.552-1.952-1.145-3.114C43.17,20.165,44.346,18.812,44.346,18.812z"></path>
<path style="fill:#757575;" d="M21.784,32.492c0,0-2.476-3.591-2.394-4.373C19.544,26.662,15.264,26,15.264,26  s-2.598,1.212-3.658,1.212c-0.262,0-1.009-0.187-1.277-0.212c-0.534-0.052-1.373,2-1.974,2c-0.296,0-1.974,0-1.974,0  s-1.164,0.229-2.298,2.25c-0.162,0.649,0.175,2.08,0.175,2.08s0.502,1.314,0.208,1.916c-0.288,0.59-0.836,1.219-1.047,1.664  C2.433,39,3.47,38.603,3.652,39.467c0.124,0.589,0.014,1.411-0.056,1.82c-0.012,0.068,0.462,2.311,1.805,2.563  C5.835,43.93,16,40,16,40L21.784,32.492z"></path>
<g>
	<path style="fill:#555555;" d="M18.001,12.668c-0.018-0.46,0.645-1.71,0.645-1.71s1.697-0.879,2.342-1.318   c0.693-0.363,1.992-0.673,3.946-0.637c0.448,0.975-0.641,1.833,0.36,2.681C25.772,12.081,26,12.748,26,12.748   s-0.623,0.84-0.649,1.309c-0.031,0.439,0.496,0.718,0.496,1.085c0.004,0.646-1.334,1.001-1.334,1.001l-2.185,1.596   c0,0-0.796,1.306-1.814,1.26c-2.062-0.101-1.334-3.72-1.334-3.72S18.027,13.601,18.001,12.668z"></path>
	<path style="fill:#555555;" d="M29.001,8.963c-0.013-0.293,0.493-1.09,0.493-1.09s1.297-0.561,1.791-0.841   c0.53-0.232,1.029,0.873,1.794,1.414c1.02,0,1.563,1.104,1.543,1.403C34.597,10.128,35,10.306,35,10.54   c0.003,0.412-1.02,0.638-1.02,0.638l-1.671,1.018c0,0-0.608,0.833-1.387,0.803C30.02,12.089,29.021,9.558,29.001,8.963z"></path>
	<path style="fill:#555555;" d="M27,19c-0.011-0.245,0-1,0-1s1.589-0.767,2-1c0.442-0.193,2,2,3,2c-0.02,0.233,0,0.755,0,0.95   c0.003,0.343-1,1.05-1,1.05s0,1-2.398,0.999C28.243,21.638,28.298,20.568,28,20C27.673,19.377,27.009,19.26,27,19z"></path>
	<path style="fill:#555555;" d="M6.014,37.405c0.18-0.325,0.85-1.699,1.57-1.348c0.517,0.252,0.274,0.803,1.014,0.884   c0.345,0.038,1.295,0.544,1.402,0.954c0.057,0.22-0.235,0.644-0.372,0.83c-0.231,0.322-0.578,1.065-0.578,1.065   s-1.901,0.474-1.901,0C7.149,38.842,5.85,37.707,6.014,37.405z"></path>
	<path style="fill:#555555;" d="M10.304,32.708c0,0-0.361-0.72-0.297-0.962c0.109-0.397,0.752-0.584,0.959-0.966   c0.227-0.411,1.073-2.152,1.983-1.708c0.653,0.32,0.346,1.017,1.281,1.12c0.435,0.048,0.836,0.286,0.836,0.286l0.133,0.782   c0,0,0.578,0.187,0.727,0.356c0.257,0.294-0.222,0.599-0.396,0.834c-0.292,0.408-0.658,1.348-0.658,1.348s-0.168,0.925-0.786,1.194   c-0.089,0.126-2.269-1.318-2.269-1.318L10.304,32.708z"></path>
	<path style="fill:#555555;" d="M21.784,32.492c0,0-2.656,2.356-3.394,2.627C16,36,16.956,38,16.355,38c-0.296,0-1.974,2-1.974,2   s-2.854-0.743-3.988,1.278c-0.162,0.649-2.632,0.367-2.927,0.969c-0.288,0.59-3.801-1.369-3.871-0.96   c-0.012,0.068,0.462,2.311,1.805,2.563c0.435,0.08,1.323,0.233,1.323,0.233l1.23,0.192l0.507,0.358C8.801,44.871,9.207,45,9.622,45   h2.719c0.431,0,0.854-0.116,1.225-0.335l1.369-0.811l3.001-0.476c0,0,1.485-0.433,1.939-1.214C20.378,41.306,22,38.052,22,38.052   L21.784,32.492z"></path>
</g>
</svg>
